<?xml version="1.0" standalone="no"?><svg xmlns:xlink="http://www.w3.org/1999/xlink" xmlns="http://www.w3.org/2000/svg" viewBox="0 0 1000 555.5555555555555" preserveAspectRatio="xMaxYMax slice"><g transform="scale(1.0683760683760684)"><rect x="0" y="0" width="936" height="520" fill="#ffffff"/><rect x="0" y="0" width="104" height="104" fill="#ffffff"/><rect x="0" y="0" width="52" height="52" fill="#bef5ec"/><polygon points="0,0 52,52 0,52" fill="#77b0b2"/><rect x="52" y="0" width="52" height="52" fill="#eeeeee"/><polygon points="52,0 104,0 52,52" fill="#66a7a9"/><rect x="0" y="52" width="52" height="52" fill="#9fc7c9"/><polygon points="0,52 52,104 0,104" fill="#5ae6d0"/><rect x="52" y="52" width="52" height="52" fill="#2f878a"/><polygon points="52,52 104,52 52,104" fill="#6fe9d6"/><rect x="104" y="0" width="104" height="104" fill="#67a7aa"/><polygon points="104,0 208,0 208,104" fill="#d9e9ea"/><rect x="208" y="0" width="104" height="104" fill="#ffffff"/><rect x="208" y="0" width="52" height="52" fill="#e0faf6"/><polygon points="208,0 260,0 208,52" fill="#288386"/><rect x="260" y="0" width="52" height="52" fill="#f9f9f9"/><polygon points="260,0 312,0 260,52" fill="#f3f3f3"/><rect x="208" y="52" width="52" height="52" fill="#c4ddde"/><polygon points="260,52 260,104 208,104" fill="#a2c9cb"/><rect x="260" y="52" width="52" height="52" fill="#efefef"/><polygon points="260,52 312,52 312,104" fill="#a1c9ca"/><rect x="312" y="0" width="104" height="104" fill="#ffffff"/><rect x="312" y="0" width="52" height="52" fill="#f8f8f8"/><polygon points="364,0 364,52 312,52" fill="#79ebd8"/><rect x="364" y="0" width="52" height="52" fill="#f1f1f1"/><polygon points="364,0 416,52 364,52" fill="#37e1c5"/><rect x="312" y="52" width="52" height="52" fill="#d5f9f3"/><polygon points="364,52 364,104 312,104" fill="#fafefe"/><rect x="364" y="52" width="52" height="52" fill="#fdfdfd"/><polygon points="416,52 416,104 364,104" fill="#daf9f4"/><rect x="416" y="0" width="104" height="104" fill="#44e3c9"/><polygon points="416,0 520,0 520,104" fill="#fdfdfd"/><rect x="520" y="0" width="104" height="104" fill="#ffffff"/><rect x="520" y="0" width="52" height="52" fill="#d0e4e5"/><polygon points="520,0 572,0 520,52" fill="#6eabae"/><rect x="572" y="0" width="52" height="52" fill="#a6cbcd"/><polygon points="572,0 624,0 572,52" fill="#4de4cc"/><rect x="520" y="52" width="52" height="52" fill="#92c0c2"/><polygon points="572,52 572,104 520,104" fill="#f2f2f2"/><rect x="572" y="52" width="52" height="52" fill="#fbfbfb"/><polygon points="572,52 624,52 624,104" fill="#b5d4d5"/><rect x="624" y="0" width="104" height="104" fill="#2f878a"/><polygon points="624,0 728,104 624,104" fill="#2d8589"/><rect x="728" y="0" width="104" height="104" fill="#fafafa"/><polygon points="728,0 832,0 832,104" fill="#fdfdfd"/><rect x="832" y="0" width="104" height="104" fill="#ffffff"/><rect x="832" y="0" width="52" height="52" fill="#5ae6d0"/><polygon points="832,0 884,0 832,52" fill="#d7e8e8"/><rect x="884" y="0" width="52" height="52" fill="#2e868a"/><polygon points="936,0 936,52 884,52" fill="#aef3e8"/><rect x="832" y="52" width="52" height="52" fill="#effdfa"/><polygon points="832,52 884,104 832,104" fill="#f3fdfc"/><rect x="884" y="52" width="52" height="52" fill="#3ce1c7"/><polygon points="884,52 936,104 884,104" fill="#59e6cf"/><rect x="0" y="104" width="104" height="104" fill="#eeeeee"/><polygon points="104,104 104,208 0,208" fill="#f5f5f5"/><rect x="104" y="104" width="104" height="104" fill="#48e3ca"/><polygon points="104,104 208,208 104,208" fill="#82b7b9"/><rect x="312" y="104" width="104" height="104" fill="#ffffff"/><rect x="312" y="104" width="52" height="52" fill="#fdffff"/><polygon points="312,104 364,104 312,156" fill="#8abbbd"/><rect x="364" y="104" width="52" height="52" fill="#bad7d8"/><polygon points="416,104 416,156 364,156" fill="#f8f8f8"/><rect x="312" y="156" width="52" height="52" fill="#d6f9f3"/><polygon points="312,156 364,208 312,208" fill="#99f0e2"/><rect x="364" y="156" width="52" height="52" fill="#fdfdfd"/><polygon points="364,156 416,156 416,208" fill="#e4fbf7"/><rect x="416" y="104" width="104" height="104" fill="#ffffff"/><rect x="416" y="104" width="52" height="52" fill="#fafafa"/><polygon points="416,104 468,156 416,156" fill="#f2f2f2"/><rect x="468" y="104" width="52" height="52" fill="#f3f3f3"/><polygon points="468,104 520,156 468,156" fill="#f9f9f9"/><rect x="416" y="156" width="52" height="52" fill="#fafafa"/><polygon points="468,156 468,208 416,208" fill="#1c7c80"/><rect x="468" y="156" width="52" height="52" fill="#daf9f4"/><polygon points="520,156 520,208 468,208" fill="#73ead7"/><rect x="520" y="104" width="104" height="104" fill="#ffffff"/><rect x="520" y="104" width="52" height="52" fill="#7cb3b5"/><polygon points="520,104 572,156 520,156" fill="#a7f2e6"/><rect x="572" y="104" width="52" height="52" fill="#fdfdfd"/><polygon points="624,104 624,156 572,156" fill="#57e6cf"/><rect x="520" y="156" width="52" height="52" fill="#83b7b9"/><polygon points="520,156 572,156 572,208" fill="#d3f8f2"/><rect x="572" y="156" width="52" height="52" fill="#dffaf6"/><polygon points="624,156 624,208 572,208" fill="#f6f6f6"/><rect x="728" y="104" width="104" height="104" fill="#1c7b7f"/><polygon points="728,104 832,104 728,208" fill="#53e5ce"/><rect x="832" y="104" width="104" height="104" fill="#58e6cf"/><polygon points="832,104 936,104 832,208" fill="#3ae1c6"/><rect x="0" y="208" width="104" height="104" fill="#42e2c9"/><polygon points="0,208 104,208 104,312" fill="#6ae8d4"/><rect x="104" y="208" width="104" height="104" fill="#ffffff"/><rect x="104" y="208" width="52" height="52" fill="#fafafa"/><polygon points="104,208 156,260 104,260" fill="#ffffff"/><rect x="156" y="208" width="52" height="52" fill="#70e9d6"/><polygon points="156,208 208,208 156,260" fill="#80ecdb"/><rect x="104" y="260" width="52" height="52" fill="#b4d4d5"/><polygon points="104,260 156,260 104,312" fill="#90bfc1"/><rect x="156" y="260" width="52" height="52" fill="#ddfaf5"/><polygon points="156,260 208,260 156,312" fill="#f6fefc"/><rect x="208" y="208" width="104" height="104" fill="#ffffff"/><rect x="208" y="208" width="52" height="52" fill="#b7f4ea"/><polygon points="208,208 260,208 208,260" fill="#f6f6f6"/><rect x="260" y="208" width="52" height="52" fill="#f8f8f8"/><polygon points="312,208 312,260 260,260" fill="#33898d"/><rect x="208" y="260" width="52" height="52" fill="#4ce4cc"/><polygon points="260,260 260,312 208,312" fill="#5de7d0"/><rect x="260" y="260" width="52" height="52" fill="#eafcf9"/><polygon points="260,260 312,260 260,312" fill="#bef5ec"/><rect x="520" y="208" width="104" height="104" fill="#ffffff"/><rect x="520" y="208" width="52" height="52" fill="#6eabad"/><polygon points="520,208 572,208 572,260" fill="#85eddc"/><rect x="572" y="208" width="52" height="52" fill="#84b8ba"/><polygon points="572,208 624,260 572,260" fill="#7fb5b7"/><rect x="520" y="260" width="52" height="52" fill="#81ecdb"/><polygon points="572,260 572,312 520,312" fill="#f6f6f6"/><rect x="572" y="260" width="52" height="52" fill="#f9f9f9"/><polygon points="624,260 624,312 572,312" fill="#b6d5d6"/><rect x="624" y="208" width="104" height="104" fill="#ffffff"/><rect x="624" y="208" width="52" height="52" fill="#d8e8e9"/><polygon points="624,208 676,208 676,260" fill="#95efe0"/><rect x="676" y="208" width="52" height="52" fill="#feffff"/><polygon points="676,208 728,260 676,260" fill="#6ba9ac"/><rect x="624" y="260" width="52" height="52" fill="#529b9e"/><polygon points="624,260 676,260 624,312" fill="#e3efef"/><rect x="676" y="260" width="52" height="52" fill="#f0f6f7"/><polygon points="676,260 728,312 676,312" fill="#f8fbfb"/><rect x="0" y="312" width="104" height="104" fill="#ffffff"/><rect x="0" y="312" width="52" height="52" fill="#258184"/><polygon points="0,312 52,312 52,364" fill="#dcfaf5"/><rect x="52" y="312" width="52" height="52" fill="#6ba9ac"/><polygon points="52,312 104,364 52,364" fill="#f5f5f5"/><rect x="0" y="364" width="52" height="52" fill="#dcfaf5"/><polygon points="0,364 52,364 52,416" fill="#fefefe"/><rect x="52" y="364" width="52" height="52" fill="#baf5eb"/><polygon points="52,364 104,364 52,416" fill="#d8e8e9"/><rect x="312" y="312" width="104" height="104" fill="#ffffff"/><rect x="312" y="312" width="52" height="52" fill="#35e0c5"/><polygon points="312,312 364,364 312,364" fill="#3ee2c7"/><rect x="364" y="312" width="52" height="52" fill="#c5f6ee"/><polygon points="364,312 416,312 364,364" fill="#bef5ec"/><rect x="312" y="364" width="52" height="52" fill="#f7f7f7"/><polygon points="312,364 364,364 364,416" fill="#f4fdfc"/><rect x="364" y="364" width="52" height="52" fill="#83ecdb"/><polygon points="364,364 416,416 364,416" fill="#f7f7f7"/><rect x="416" y="312" width="104" height="104" fill="#64a5a8"/><polygon points="416,312 520,312 416,416" fill="#9dc6c8"/><rect x="520" y="312" width="104" height="104" fill="#4b979a"/><polygon points="624,312 624,416 520,416" fill="#87babc"/><rect x="728" y="312" width="104" height="104" fill="#f3f3f3"/><polygon points="728,312 832,312 832,416" fill="#5da1a4"/><rect x="0" y="416" width="104" height="104" fill="#ffffff"/><rect x="0" y="416" width="52" height="52" fill="#f4f4f4"/><polygon points="52,416 52,468 0,468" fill="#f4f4f4"/><rect x="52" y="416" width="52" height="52" fill="#edf5f5"/><polygon points="52,416 104,416 52,468" fill="#eeeeee"/><rect x="0" y="468" width="52" height="52" fill="#f6f6f6"/><polygon points="52,468 52,520 0,520" fill="#82b7b9"/><rect x="52" y="468" width="52" height="52" fill="#d2e5e6"/><polygon points="52,468 104,468 104,520" fill="#accfd0"/><rect x="208" y="416" width="104" height="104" fill="#ffffff"/><rect x="208" y="416" width="52" height="52" fill="#f8f8f8"/><polygon points="208,416 260,416 260,468" fill="#a1f1e4"/><rect x="260" y="416" width="52" height="52" fill="#f0f0f0"/><polygon points="260,416 312,416 312,468" fill="#5ce6d0"/><rect x="208" y="468" width="52" height="52" fill="#5ee7d1"/><polygon points="260,468 260,520 208,520" fill="#fbfbfb"/><rect x="260" y="468" width="52" height="52" fill="#348a8d"/><polygon points="260,468 312,468 260,520" fill="#fefefe"/><rect x="312" y="416" width="104" height="104" fill="#ffffff"/><rect x="312" y="416" width="52" height="52" fill="#b1f3e8"/><polygon points="312,416 364,416 364,468" fill="#a3f1e5"/><rect x="364" y="416" width="52" height="52" fill="#17797c"/><polygon points="364,416 416,468 364,468" fill="#f4f4f4"/><rect x="312" y="468" width="52" height="52" fill="#b2f3e9"/><polygon points="312,468 364,468 312,520" fill="#aacecf"/><rect x="364" y="468" width="52" height="52" fill="#e0faf6"/><polygon points="364,468 416,468 364,520" fill="#72aeb0"/><rect x="416" y="416" width="104" height="104" fill="#ffffff"/><rect x="416" y="416" width="52" height="52" fill="#fafafa"/><polygon points="416,416 468,416 416,468" fill="#e6f0f1"/><rect x="468" y="416" width="52" height="52" fill="#e2fbf7"/><polygon points="468,416 520,416 520,468" fill="#fcfdfd"/><rect x="416" y="468" width="52" height="52" fill="#eeeeee"/><polygon points="416,468 468,468 468,520" fill="#d9f9f4"/><rect x="468" y="468" width="52" height="52" fill="#d1e5e5"/><polygon points="468,468 520,520 468,520" fill="#efefef"/><rect x="520" y="416" width="104" height="104" fill="#7eebda"/><polygon points="624,416 624,520 520,520" fill="#f0f0f0"/><rect x="624" y="416" width="104" height="104" fill="#ffffff"/><rect x="624" y="416" width="52" height="52" fill="#6aa9ab"/><polygon points="624,416 676,416 676,468" fill="#d9f9f4"/><rect x="676" y="416" width="52" height="52" fill="#2e8689"/><polygon points="728,416 728,468 676,468" fill="#59e6cf"/><rect x="624" y="468" width="52" height="52" fill="#f1f1f1"/><polygon points="624,468 676,468 624,520" fill="#81ecdb"/><rect x="676" y="468" width="52" height="52" fill="#fefefe"/><polygon points="676,468 728,520 676,520" fill="#f8f8f8"/><rect x="728" y="416" width="104" height="104" fill="#12767a"/><polygon points="728,416 832,416 832,520" fill="#539b9e"/><rect x="832" y="416" width="104" height="104" fill="#ffffff"/><rect x="832" y="416" width="52" height="52" fill="#4a9699"/><polygon points="832,416 884,416 832,468" fill="#3ae1c6"/><rect x="884" y="416" width="52" height="52" fill="#88eddd"/><polygon points="884,416 936,468 884,468" fill="#f1f1f1"/><rect x="832" y="468" width="52" height="52" fill="#f6f6f6"/><polygon points="832,468 884,468 832,520" fill="#d8e9e9"/><rect x="884" y="468" width="52" height="52" fill="#58e6cf"/><polygon points="884,468 936,468 936,520" fill="#eefcfa"/></g></svg>