<?xml version="1.0" standalone="no"?><svg xmlns:xlink="http://www.w3.org/1999/xlink" xmlns="http://www.w3.org/2000/svg" viewBox="0 0 1000 299.9875518672199" preserveAspectRatio="xMaxYMax slice"><g transform="scale(1.037344398340249)"><rect x="0" y="0" width="964" height="289.20000000000005" fill="#212121"/><rect x="0" y="0" width="96.4" height="96.4" fill="#202020"/><polygon points="0,0 96.4,96.4 0,96.4" fill="#191919"/><rect x="96.4" y="0" width="96.4" height="96.4" fill="#212121"/><rect x="96.4" y="0" width="48.2" height="48.2" fill="#212121"/><polygon points="96.4,0 144.60000000000002,48.2 96.4,48.2" fill="#212121"/><rect x="144.6" y="0" width="48.2" height="48.2" fill="#212121"/><polygon points="144.6,0 192.8,0 144.6,48.2" fill="#212121"/><rect x="96.4" y="48.2" width="48.2" height="48.2" fill="#212121"/><polygon points="144.60000000000002,48.2 144.60000000000002,96.4 96.4,96.4" fill="#000000"/><rect x="144.6" y="48.2" width="48.2" height="48.2" fill="#212121"/><polygon points="192.8,48.2 192.8,96.4 144.6,96.4" fill="#212121"/><rect x="192.8" y="0" width="96.4" height="96.4" fill="#191919"/><polygon points="192.8,0 289.20000000000005,0 192.8,96.4" fill="#212121"/><rect x="289.2" y="0" width="96.4" height="96.4" fill="#050505"/><polygon points="289.2,0 385.6,96.4 289.2,96.4" fill="#111111"/><rect x="385.6" y="0" width="96.4" height="96.4" fill="#212121"/><rect x="385.6" y="0" width="48.2" height="48.2" fill="#212121"/><polygon points="385.6,0 433.8,48.2 385.6,48.2" fill="#212121"/><rect x="433.8" y="0" width="48.2" height="48.2" fill="#212121"/><polygon points="482,0 482,48.2 433.8,48.2" fill="#212121"/><rect x="385.6" y="48.2" width="48.2" height="48.2" fill="#060606"/><polygon points="385.6,48.2 433.8,48.2 385.6,96.4" fill="#161616"/><rect x="433.8" y="48.2" width="48.2" height="48.2" fill="#060606"/><polygon points="433.8,48.2 482,96.4 433.8,96.4" fill="#212121"/><rect x="482" y="0" width="96.4" height="96.4" fill="#212121"/><polygon points="578.4,0 578.4,96.4 482,96.4" fill="#212121"/><rect x="578.4" y="0" width="96.4" height="96.4" fill="#212121"/><polygon points="578.4,0 674.8,0 674.8,96.4" fill="#212121"/><rect x="674.8" y="0" width="96.4" height="96.4" fill="#212121"/><polygon points="674.8,0 771.1999999999999,96.4 674.8,96.4" fill="#191919"/><rect x="771.2" y="0" width="96.4" height="96.4" fill="#212121"/><rect x="771.2" y="0" width="48.2" height="48.2" fill="#080808"/><polygon points="771.2,0 819.4000000000001,0 819.4000000000001,48.2" fill="#212121"/><rect x="819.4" y="0" width="48.2" height="48.2" fill="#212121"/><polygon points="867.6,0 867.6,48.2 819.4,48.2" fill="#0a0a0a"/><rect x="771.2" y="48.2" width="48.2" height="48.2" fill="#212121"/><polygon points="771.2,48.2 819.4000000000001,48.2 819.4000000000001,96.4" fill="#060606"/><rect x="819.4" y="48.2" width="48.2" height="48.2" fill="#212121"/><polygon points="819.4,48.2 867.6,48.2 819.4,96.4" fill="#161616"/><rect x="867.6" y="0" width="96.4" height="96.4" fill="#212121"/><rect x="867.6" y="0" width="48.2" height="48.2" fill="#1a1a1a"/><polygon points="867.6,0 915.8000000000001,0 915.8000000000001,48.2" fill="#212121"/><rect x="915.8" y="0" width="48.2" height="48.2" fill="#1e1e1e"/><polygon points="915.8,0 964,48.2 915.8,48.2" fill="#191919"/><rect x="867.6" y="48.2" width="48.2" height="48.2" fill="#0e0e0e"/><polygon points="915.8000000000001,48.2 915.8000000000001,96.4 867.6,96.4" fill="#090909"/><rect x="915.8" y="48.2" width="48.2" height="48.2" fill="#090909"/><polygon points="915.8,48.2 964,96.4 915.8,96.4" fill="#1e1e1e"/><rect x="0" y="96.4" width="96.4" height="96.4" fill="#212121"/><polygon points="0,96.4 96.4,96.4 0,192.8" fill="#0b0b0b"/><rect x="96.4" y="96.4" width="96.4" height="96.4" fill="#212121"/><polygon points="192.8,96.4 192.8,192.8 96.4,192.8" fill="#212121"/><rect x="192.8" y="96.4" width="96.4" height="96.4" fill="#212121"/><polygon points="192.8,96.4 289.20000000000005,192.8 192.8,192.8" fill="#060606"/><rect x="289.20000000000005" y="96.4" width="96.4" height="96.4" fill="#212121"/><rect x="289.2" y="96.4" width="48.2" height="48.2" fill="#1b1b1b"/><polygon points="289.2,96.4 337.4,144.60000000000002 289.2,144.60000000000002" fill="#171717"/><rect x="337.4" y="96.4" width="48.2" height="48.2" fill="#212121"/><polygon points="385.59999999999997,96.4 385.59999999999997,144.60000000000002 337.4,144.60000000000002" fill="#0b0b0b"/><rect x="289.2" y="144.6" width="48.2" height="48.2" fill="#111111"/><polygon points="289.2,144.6 337.4,192.8 289.2,192.8" fill="#212121"/><rect x="337.4" y="144.6" width="48.2" height="48.2" fill="#212121"/><polygon points="385.59999999999997,144.6 385.59999999999997,192.8 337.4,192.8" fill="#1e1e1e"/><rect x="385.6" y="96.4" width="96.4" height="96.4" fill="#212121"/><polygon points="385.6,96.4 482,96.4 385.6,192.8" fill="#090909"/><rect x="482" y="96.4" width="96.4" height="96.4" fill="#212121"/><polygon points="482,96.4 578.4,192.8 482,192.8" fill="#0b0b0b"/><rect x="578.4" y="96.4" width="96.4" height="96.4" fill="#212121"/><polygon points="578.4,96.4 674.8,96.4 578.4,192.8" fill="#212121"/><rect x="674.8" y="96.4" width="96.4" height="96.4" fill="#212121"/><polygon points="771.1999999999999,96.4 771.1999999999999,192.8 674.8,192.8" fill="#090909"/><rect x="771.2" y="96.4" width="96.4" height="96.4" fill="#171717"/><polygon points="867.6,96.4 867.6,192.8 771.2,192.8" fill="#030303"/><rect x="867.6" y="96.4" width="96.4" height="96.4" fill="#0c0c0c"/><polygon points="867.6,96.4 964,96.4 867.6,192.8" fill="#212121"/><rect x="0" y="192.8" width="96.4" height="96.4" fill="#212121"/><rect x="0" y="192.8" width="48.2" height="48.2" fill="#1a1a1a"/><polygon points="48.2,192.8 48.2,241 0,241" fill="#212121"/><rect x="48.2" y="192.8" width="48.2" height="48.2" fill="#020202"/><polygon points="48.2,192.8 96.4,241 48.2,241" fill="#212121"/><rect x="0" y="241" width="48.2" height="48.2" fill="#1a1a1a"/><polygon points="0,241 48.2,241 0,289.2" fill="#191919"/><rect x="48.2" y="241" width="48.2" height="48.2" fill="#0d0d0d"/><polygon points="48.2,241 96.4,241 96.4,289.2" fill="#212121"/><rect x="96.4" y="192.8" width="96.4" height="96.4" fill="#212121"/><rect x="96.4" y="192.8" width="48.2" height="48.2" fill="#010101"/><polygon points="96.4,192.8 144.60000000000002,192.8 144.60000000000002,241" fill="#010101"/><rect x="144.6" y="192.8" width="48.2" height="48.2" fill="#212121"/><polygon points="144.6,192.8 192.8,192.8 144.6,241" fill="#212121"/><rect x="96.4" y="241" width="48.2" height="48.2" fill="#212121"/><polygon points="144.60000000000002,241 144.60000000000002,289.2 96.4,289.2" fill="#0b0b0b"/><rect x="144.6" y="241" width="48.2" height="48.2" fill="#212121"/><polygon points="144.6,241 192.8,241 144.6,289.2" fill="#212121"/><rect x="192.8" y="192.8" width="96.4" height="96.4" fill="#040404"/><polygon points="289.20000000000005,192.8 289.20000000000005,289.20000000000005 192.8,289.20000000000005" fill="#212121"/><rect x="289.2" y="192.8" width="96.4" height="96.4" fill="#131313"/><polygon points="289.2,192.8 385.6,289.20000000000005 289.2,289.20000000000005" fill="#1c1c1c"/><rect x="385.6" y="192.8" width="96.4" height="96.4" fill="#212121"/><rect x="385.6" y="192.8" width="48.2" height="48.2" fill="#0b0b0b"/><polygon points="385.6,192.8 433.8,192.8 433.8,241" fill="#141414"/><rect x="433.8" y="192.8" width="48.2" height="48.2" fill="#212121"/><polygon points="433.8,192.8 482,192.8 482,241" fill="#0b0b0b"/><rect x="385.6" y="241" width="48.2" height="48.2" fill="#212121"/><polygon points="385.6,241 433.8,241 433.8,289.2" fill="#212121"/><rect x="433.8" y="241" width="48.2" height="48.2" fill="#1a1a1a"/><polygon points="433.8,241 482,241 433.8,289.2" fill="#151515"/><rect x="482" y="192.8" width="96.4" height="96.4" fill="#161616"/><polygon points="482,192.8 578.4,192.8 482,289.20000000000005" fill="#212121"/><rect x="578.4" y="192.8" width="96.4" height="96.4" fill="#0b0b0b"/><polygon points="578.4,192.8 674.8,192.8 578.4,289.20000000000005" fill="#212121"/><rect x="674.8" y="192.8" width="96.4" height="96.4" fill="#212121"/><polygon points="674.8,192.8 771.1999999999999,289.20000000000005 674.8,289.20000000000005" fill="#0a0a0a"/><rect x="771.2" y="192.8" width="96.4" height="96.4" fill="#212121"/><rect x="771.2" y="192.8" width="48.2" height="48.2" fill="#212121"/><polygon points="771.2,192.8 819.4000000000001,192.8 819.4000000000001,241" fill="#1d1d1d"/><rect x="819.4" y="192.8" width="48.2" height="48.2" fill="#212121"/><polygon points="867.6,192.8 867.6,241 819.4,241" fill="#212121"/><rect x="771.2" y="241" width="48.2" height="48.2" fill="#212121"/><polygon points="771.2,241 819.4000000000001,289.2 771.2,289.2" fill="#161616"/><rect x="819.4" y="241" width="48.2" height="48.2" fill="#212121"/><polygon points="867.6,241 867.6,289.2 819.4,289.2" fill="#111111"/><rect x="867.6" y="192.8" width="96.4" height="96.4" fill="#212121"/><polygon points="867.6,192.8 964,289.20000000000005 867.6,289.20000000000005" fill="#212121"/></g></svg>