<?xml version="1.0" standalone="no"?><svg xmlns:xlink="http://www.w3.org/1999/xlink" xmlns="http://www.w3.org/2000/svg" viewBox="0 0 1000 625" preserveAspectRatio="xMaxYMax slice"><g transform="scale(1.2019230769230769)"><rect x="0" y="0" width="832" height="520" fill="#150485"/><rect x="0" y="0" width="104" height="104" fill="#651586"/><path d="M 0 104 A 104 104 0 0 0 104 0 L 0 0" fill="#500893"/><rect x="104" y="0" width="104" height="104" fill="#4e0892"/><path d="M 104 104 A 104 104 0 0 1  208 0 L 104 104 A 104 104 0 0 0 208 0" fill="#851c87"/><rect x="208" y="0" width="104" height="104" fill="#5c1386"/><polygon points="208,0 312,0 208,104" fill="#04b79f"/><rect x="312" y="0" width="104" height="104" fill="#150485"/><path d="M 312 0 A 104 104 0 0 1  416 104 L 312 0 A 104 104 0 0 0 416 104" fill="#560994"/><rect x="416" y="0" width="104" height="104" fill="#aa2488"/><polygon points="416,0 520,0 520,104" fill="#150485"/><rect x="520" y="0" width="104" height="104" fill="#150485"/><path d="M 520 0 A 104 104 0 0 1  624 104 L 520 0 A 104 104 0 0 0 624 104" fill="#580995"/><rect x="624" y="0" width="104" height="104" fill="#150485"/><rect x="624" y="0" width="52" height="52" fill="#06a49c"/><path d="M 624 52 A 52 52 0 0 0 676 0 L 624 0" fill="#190486"/><rect x="676" y="0" width="52" height="52" fill="#38078d"/><path d="M 676 0 A 52 52 0 0 0 728 52 L 728 0" fill="#04baa0"/><rect x="624" y="52" width="52" height="52" fill="#200587"/><path d="M 624 52 A 52 52 0 0 1 676 104 L 624 104" fill="#250589"/><rect x="676" y="52" width="52" height="52" fill="#2f0a85"/><path d="M 676 104 A 52 52 0 0 1  728 52 L 728 104" fill="#541186"/><rect x="728" y="0" width="104" height="104" fill="#150485"/><rect x="728" y="0" width="104" height="104" fill="#7e1a87"/><rect x="0" y="104" width="104" height="104" fill="#150485"/><rect x="0" y="104" width="52" height="52" fill="#b72788"/><polygon points="0,104 52,104 0,156" fill="#2b0985"/><rect x="52" y="104" width="52" height="52" fill="#6e1787"/><polygon points="52,104 104,104 104,156" fill="#0f488f"/><rect x="0" y="156" width="52" height="52" fill="#641586"/><polygon points="0,156 52,208 0,208" fill="#04b79f"/><rect x="52" y="156" width="52" height="52" fill="#4c0892"/><polygon points="104,156 104,208 52,208" fill="#c12988"/><rect x="104" y="104" width="104" height="104" fill="#bd2888"/><path d="M 104 208 A 104 104 0 0 1  208 104 L 208 208" fill="#831c87"/><rect x="208" y="104" width="104" height="104" fill="#150485"/><rect x="208" y="104" width="52" height="52" fill="#5d1486"/><path d="M 208 156 A 52 52 0 0 1 260 104 L 260 117 A 39 39 0 0 0 221 156" fill="#150485"/><rect x="260" y="104" width="52" height="52" fill="#150485"/><path d="M 260 104 A 52 52 0 0 1 312 156 L 299 156 A 39 39 0 0 0 260 117" fill="#982087"/><rect x="208" y="156" width="52" height="52" fill="#150485"/><path d="M 208 156 A 52 52 0 0 0 260 208 L 260 195 A 39 39 0 0 1 221 156" fill="#0f438e"/><rect x="260" y="156" width="52" height="52" fill="#29058a"/><path d="M 260 208 A 52 52 0 0 0 312 156 L 299 156 A 39 39 0 0 1 260 195" fill="#3b0c86"/><rect x="312" y="104" width="104" height="104" fill="#150485"/><polygon points="416,104 416,208 312,208" fill="#150485"/><rect x="416" y="104" width="104" height="104" fill="#150485"/><path d="M 416 208 A 104 104 0 0 0 520 104 L 416 104" fill="#4a0891"/><rect x="520" y="104" width="104" height="104" fill="#0b7295"/><rect x="520" y="104" width="104" height="104" fill="#741887"/><rect x="624" y="104" width="104" height="104" fill="#150485"/><rect x="624" y="104" width="104" height="104" fill="#150485"/><rect x="728" y="104" width="104" height="104" fill="#38078d"/><path d="M 728 104 A 104 104 0 0 0 832 208 L 832 104" fill="#4d0892"/><rect x="0" y="208" width="104" height="104" fill="#2c068a"/><rect x="0" y="208" width="104" height="104" fill="#150485"/><rect x="104" y="208" width="104" height="104" fill="#04b59f"/><path d="M 104 208 A 104 104 0 0 1 208 312 L 104 312" fill="#a92488"/><rect x="208" y="208" width="104" height="104" fill="#821b87"/><path d="M 208 208 A 104 104 0 0 0 312 312 L 312 208" fill="#2a0985"/><rect x="312" y="208" width="104" height="104" fill="#150485"/><rect x="312" y="208" width="52" height="52" fill="#540994"/><path d="M 312 260 A 52 52 0 0 1  364 208 L 364 260" fill="#10388d"/><rect x="364" y="208" width="52" height="52" fill="#470891"/><path d="M 364 208 A 52 52 0 0 1 416 260 L 364 260" fill="#c42a88"/><rect x="312" y="260" width="52" height="52" fill="#480891"/><path d="M 312 260 A 52 52 0 0 0 364 312 L 364 260" fill="#150485"/><rect x="364" y="260" width="52" height="52" fill="#150485"/><path d="M 364 312 A 52 52 0 0 0 416 260 L 364 260" fill="#520893"/><rect x="416" y="208" width="104" height="104" fill="#190486"/><path d="M 416 312 A 104 104 0 0 1  520 208 L 416 312 A 104 104 0 0 0 520 208" fill="#771987"/><rect x="520" y="208" width="104" height="104" fill="#12248a"/><path d="M 520 312 A 104 104 0 0 1  624 208 L 520 312 A 104 104 0 0 0 624 208" fill="#150485"/><rect x="624" y="208" width="104" height="104" fill="#150485"/><rect x="624" y="208" width="52" height="52" fill="#06a19c"/><path d="M 624 208 A 52 52 0 0 0 676 260 L 676 208" fill="#450890"/><rect x="676" y="208" width="52" height="52" fill="#098297"/><path d="M 676 260 A 52 52 0 0 0 728 208 L 676 208" fill="#1f0587"/><rect x="624" y="260" width="52" height="52" fill="#150485"/><path d="M 624 312 A 52 52 0 0 1  676 260 L 676 312" fill="#310a85"/><rect x="676" y="260" width="52" height="52" fill="#40078f"/><path d="M 676 260 A 52 52 0 0 1 728 312 L 676 312" fill="#150485"/><rect x="728" y="208" width="104" height="104" fill="#098698"/><path d="M 728 208 A 104 104 0 0 0 832 312 L 832 208" fill="#06a29c"/><rect x="0" y="312" width="104" height="104" fill="#150485"/><rect x="0" y="312" width="52" height="52" fill="#ad2588"/><path d="M 0 364 A 52 52 0 0 0 52 312 L 0 312" fill="#6b1786"/><rect x="52" y="312" width="52" height="52" fill="#701887"/><path d="M 52 312 A 52 52 0 0 0 104 364 L 104 312" fill="#088f99"/><rect x="0" y="364" width="52" height="52" fill="#150485"/><path d="M 0 364 A 52 52 0 0 1 52 416 L 0 416" fill="#4a0891"/><rect x="52" y="364" width="52" height="52" fill="#a42387"/><path d="M 52 416 A 52 52 0 0 1  104 364 L 104 416" fill="#580995"/><rect x="104" y="312" width="104" height="104" fill="#4c0892"/><polygon points="104,312 208,312 104,416" fill="#35068d"/><rect x="208" y="312" width="104" height="104" fill="#0d5791"/><polygon points="312,312 312,416 208,416" fill="#10358c"/><rect x="312" y="312" width="104" height="104" fill="#3e0d86"/><path d="M 312 312 A 104 104 0 0 1  416 416 L 312 312 A 104 104 0 0 0 416 416" fill="#0a7d97"/><rect x="416" y="312" width="104" height="104" fill="#0a7d97"/><rect x="416" y="312" width="104" height="104" fill="#240588"/><rect x="520" y="312" width="104" height="104" fill="#150485"/><polygon points="520,312 624,416 520,416" fill="#150485"/><rect x="624" y="312" width="104" height="104" fill="#088f99"/><path d="M 624 416 A 104 104 0 0 1  728 312 L 624 416 A 104 104 0 0 0 728 312" fill="#12268a"/><rect x="728" y="312" width="104" height="104" fill="#150485"/><rect x="728" y="312" width="104" height="104" fill="#150485"/><rect x="0" y="416" width="104" height="104" fill="#150485"/><rect x="0" y="416" width="52" height="52" fill="#150485"/><path d="M 0 468 A 52 52 0 0 1  52 416 L 52 468" fill="#150485"/><rect x="52" y="416" width="52" height="52" fill="#891d87"/><path d="M 52 416 A 52 52 0 0 1 104 468 L 52 468" fill="#150485"/><rect x="0" y="468" width="52" height="52" fill="#c12988"/><path d="M 0 468 A 52 52 0 0 0 52 520 L 52 468" fill="#05ac9e"/><rect x="52" y="468" width="52" height="52" fill="#3f078f"/><path d="M 52 520 A 52 52 0 0 0 104 468 L 52 468" fill="#150485"/><rect x="104" y="416" width="104" height="104" fill="#150485"/><rect x="104" y="416" width="52" height="52" fill="#2c068a"/><polygon points="104,416 156,416 104,468" fill="#150485"/><rect x="156" y="416" width="52" height="52" fill="#0f448e"/><polygon points="156,416 208,416 208,468" fill="#150485"/><rect x="104" y="468" width="52" height="52" fill="#460e86"/><polygon points="104,468 156,520 104,520" fill="#31068c"/><rect x="156" y="468" width="52" height="52" fill="#098097"/><polygon points="208,468 208,520 156,520" fill="#972087"/><rect x="208" y="416" width="104" height="104" fill="#150485"/><rect x="208" y="416" width="52" height="52" fill="#05ad9e"/><path d="M 208 468 A 52 52 0 0 1  260 416 L 260 468" fill="#c32988"/><rect x="260" y="416" width="52" height="52" fill="#480891"/><path d="M 260 416 A 52 52 0 0 1 312 468 L 260 468" fill="#150485"/><rect x="208" y="468" width="52" height="52" fill="#150485"/><path d="M 208 468 A 52 52 0 0 0 260 520 L 260 468" fill="#591386"/><rect x="260" y="468" width="52" height="52" fill="#150485"/><path d="M 260 520 A 52 52 0 0 0 312 468 L 260 468" fill="#098698"/><rect x="312" y="416" width="104" height="104" fill="#06a99d"/><polygon points="312,416 416,416 416,520" fill="#530994"/><rect x="416" y="416" width="104" height="104" fill="#8b1d87"/><rect x="416" y="416" width="104" height="104" fill="#570994"/><rect x="520" y="416" width="104" height="104" fill="#150485"/><polygon points="624,416 624,520 520,520" fill="#290885"/><rect x="624" y="416" width="104" height="104" fill="#0c6793"/><polygon points="624,416 728,416 624,520" fill="#2d068b"/><rect x="728" y="416" width="104" height="104" fill="#150485"/><polygon points="728,416 832,416 832,520" fill="#160485"/></g></svg>